<svg xmlns="http://www.w3.org/2000/svg" viewBox="0 0 1600 900" role="img" aria-labelledby="title desc">
  <title id="title">Hurricane watch and warning preparedness table</title>
  <desc id="desc">Phone, radio, flashlight, batteries, and evacuation map arranged on a kitchen table.</desc>
  <rect width="1600" height="900" fill="#edf4f5"/>
  <rect x="0" y="0" width="1600" height="390" fill="#b9d2d9"/>
  <path d="M0 285 C245 230 420 295 680 245 C1000 185 1200 270 1600 205 L1600 390 L0 390 Z" fill="#8fb4bf" opacity=".7"/>
  <rect x="0" y="455" width="1600" height="445" fill="#dfd4c4"/>
  <rect x="245" y="250" width="295" height="520" rx="42" fill="#17212b"/><rect x="276" y="305" width="233" height="390" rx="16" fill="#e7f0f2"/>
  <rect x="315" y="345" width="156" height="74" rx="10" fill="#c1442e" opacity=".85"/><rect x="315" y="452" width="156" height="28" rx="14" fill="#74b7c9"/><rect x="315" y="505" width="120" height="28" rx="14" fill="#c9891a"/>
  <rect x="670" y="520" width="440" height="250" rx="18" fill="#fff"/><path d="M700 680 C775 600 875 710 955 620 C1005 565 1050 610 1080 575" fill="none" stroke="#0e6f8f" stroke-width="10"/>
  <circle cx="760" cy="610" r="14" fill="#c1442e"/><circle cx="1005" cy="580" r="14" fill="#c1442e"/>
  <rect x="1135" y="485" width="210" height="88" rx="44" fill="#20384d"/><rect x="1175" y="445" width="130" height="70" rx="12" fill="#20384d"/>
  <rect x="1120" y="635" width="270" height="58" rx="29" fill="#0e6f8f"/><circle cx="1168" cy="664" r="22" fill="#f6fbfc"/><circle cx="1230" cy="664" r="22" fill="#f6fbfc"/>
</svg>
